<svg width="420" height="260" viewBox="0 0 420 260" fill="none" xmlns="http://www.w3.org/2000/svg">
<g clip-path="url(#clip0_200_36469)">
<path d="M-3.80878 204.802L0.450968 203.334L4.76409 202.065L9.80948 203.529L14.8715 205.055L19.0546 203.3L24.582 206.563L28.9985 205.679L31.1799 196.455L34.8125 192.646L38.3917 188.638L42.468 186.484L45.2098 179.351L50.3153 181.039L56.0095 184.924L59.487 180.536L62.6141 174.841L65.9164 169.8L71.4172 172.963L75.9338 172.453L78.6323 165.158L83.5626 166.192L87.2535 162.601L91.2731 160.236L95.9298 160.25L98.5983 152.843L102.306 149.314L109.667 159.418L115.551 164.013L121.117 167.419L124.593 163.025L129.368 163.48L134.009 163.437L136.95 157.045L142 158.527L148.55 165.606L153.564 166.951L159.423 171.453L163.73 170.159L168.068 168.983L171.368 163.935L175.87 163.37L179.304 158.82L181.095 148.138L185.225 146.185L188.919 142.606L194.703 146.827L198.731 144.494L203.303 144.189L207.691 143.2L210.832 137.555L216.357 140.812L220.097 137.401L222.887 130.448L227.674 130.947L231.111 126.41L236.57 129.417L241.317 129.767L243.729 121.401L248.114 120.4L251.084 114.119L254.166 108.256L257.18 102.138L263.241 107.392L265.057 96.8042L270.126 98.3551L274.194 96.1708L277.705 91.9074L282.493 92.4125L289.675 101.851L293.521 98.8384L295.743 89.763L297.502 78.9632L304.459 87.5609L310.715 93.544L315.464 93.8997L317.984 85.9385L322.245 84.4764L324.949 77.2001L331.464 84.1481L333.448 74.1887L334.624 61.2101L338.11 56.8533L343.212 58.5287L347.894 58.6353L351.211 53.6498L356.828 57.2487L362.214 59.9824L366.237 57.6301L371.881 61.3286L377.554 65.1329L382.591 66.5655L388.282 70.4383L393.827 73.7696L398.406 73.4903L402.505 71.4243L408.732 77.2954L413.862 79.0766L418.744 79.9302L423.496 80.2983L425.12 68.9943" stroke="#EAECF0" stroke-width="1.65254" stroke-linecap="round" stroke-linejoin="round"/>
<path d="M-3.95163 204.269L1.83678 208.506L4.49614 201.064L9.22449 201.345L14.2715 202.815L19.6697 205.595L24.2941 205.488L27.5465 200.26L31.179 196.451L36.4988 198.938L39.6302 193.259L43.728 191.186L47.7951 188.999L51.3781 185.005L55.5986 183.39L60.0526 182.647L65.5001 185.612L68.2481 178.501L71.9761 175.048L76.3687 174.076L80.1682 170.89L86.0401 175.438L89.7306 171.845L96.8654 181.107L101.485 180.98L106.963 184.059L110.716 180.702L112.646 170.538L116.275 166.716L119.647 161.934L121.345 150.906L125.961 150.766L129.769 147.612L134.302 147.161L139.197 148.065L144.648 151.042L149.865 153.148L153.786 150.414L158.005 148.793L162.259 147.305L166.192 144.615L169.289 138.809L174.011 139.064L177.921 136.291L180.887 129.995L184.767 127.108L189.469 127.293L191.747 118.428L196.385 118.371L201.505 120.114L203.87 111.573L208.061 109.85L211.699 106.06L214.346 98.5743L220.205 103.072L224.57 101.998L227.55 95.7523L234.03 102.571L238.2 100.766L243.507 103.209L249.441 107.986L251.957 100.011L254.993 93.9753L259.747 94.3513L264.869 96.1011L269.93 97.6219L275.767 102.043L277.655 91.7207L280.428 84.7058L284.371 82.0542L287.894 77.8378L290.71 70.9819L294.457 67.5988L299.925 70.6398L305.787 75.15L310.471 75.2652L314.889 74.3881L319.81 75.3874L324.503 75.5343L327.634 69.8551L330.135 61.8225L337.222 70.9059L340.865 67.1348L344.209 62.2507L347.489 57.1248L353.059 60.5474L357.14 58.411L360.232 52.5854L363.433 47.167L369.452 52.2624L374.669 54.3684L378.813 52.4673L385.144 58.7266L389.079 56.0495L395.476 62.5569L400.017 62.1378L405.16 63.9639L406.681 52.2741L409.875 46.8302L415.776 51.4867L418.826 45.5022" stroke="#EAECF0" stroke-width="1.65254" stroke-linecap="round" stroke-linejoin="round"/>
<path d="M-3.38691 206.375L0.763692 204.499L4.99099 202.91L7.40834 194.566L11.2402 191.5L15.8595 191.374L19.4443 187.387L23.416 184.843L26.7246 179.825L29.9328 174.432L32.7268 167.494L37.5676 168.194L41.7063 166.274L44.7662 160.328L47.0012 151.303L51.3648 150.222L57.5554 155.96L60.3358 148.97L64.5699 147.406L70.0481 150.486L75.0901 151.936L79.273 150.182L83.5208 148.668L87.4669 146.03L92.11 145.992L96.8247 146.222L100.27 141.713L104.485 140.079L108.607 138.095L114.395 142.332L116.93 134.426L120.835 131.635L124.084 126.394L128.75 126.44L134.16 129.264L138.288 127.306L141.515 121.983L144.439 115.528L148.351 112.762L154.062 116.712L157.618 112.617L162.118 112.045L166.499 111.028L170.649 109.152L178.089 119.552L181.209 113.829L184.146 107.424L188.046 104.614L192.87 105.25L198.247 107.954L201.191 101.575L206.017 102.218L211.705 106.08L216.428 106.341L220.391 103.766L226.369 108.709L231.407 110.147L235.568 108.309L239.821 106.815L243.102 101.696L248.202 103.363L251.843 99.5854L256.369 99.109L261.508 100.922L264.326 94.0729L268.248 91.3449L272.327 89.2021L277.406 90.7929L281.692 89.4197L286.538 90.1391L290.506 87.5828L294.5 85.122L299.295 85.6506L303.092 82.4583L307.304 80.8116L311.426 78.8278L314.888 74.3825L318.843 71.7754L322.542 68.2142L327.06 67.7124L330.239 62.2113L336.21 67.1286L340.513 65.819L344.402 62.9702L349.807 65.7758L355.352 69.103L359.85 68.5249L364.413 68.1884L368.213 65.0025L372.929 65.2385L375.195 56.3282L379.134 53.6638L382.071 47.2595L386.617 46.8595L389.147 38.935L394.741 42.4467L398.021 37.3208L402.095 35.1589L405.036 28.7673L409.399 27.6867L414.199 28.2344" stroke="#EAECF0" stroke-width="1.65254" stroke-linecap="round" stroke-linejoin="round"/>
<path d="M-3.55672 205.742L-0.104875 201.259L6.60726 208.943L10.4272 205.833L16.2753 210.293L19.0676 203.348L22.274 197.948L27.4387 199.857L30.2889 193.128L36.4846 198.885L40.7205 197.328L46.0913 200.006L49.6352 195.866L54.6482 197.209L60.4451 201.477L65.2808 202.159L68.84 198.076L71.7346 191.512L76.7373 192.817L81.2902 192.442L84.4165 186.744L89.4294 188.087L94.2515 188.717L98.6527 187.777L103.661 189.1L109.296 192.764L113.492 191.061L116.55 185.108L121.754 187.163L124.526 180.142L128.651 178.171L134.136 181.275L138.789 181.276L143.99 183.318L146.965 177.054L150.824 174.09L154.896 171.922L159.159 170.466L163.567 169.551L166.831 164.368L171.722 165.253L176.666 166.341L180.215 162.22L185.046 162.882L189.389 161.725L193.528 159.805L198.328 160.353L202.661 159.158L207.737 160.736L213.171 163.65L218.335 165.558L223.468 167.346L227.09 163.499L231.975 164.365L235.723 160.988L239.705 158.483L243.362 154.762L247.707 153.612L252.167 152.894L255.295 147.202L260.6 149.632L265.2 149.436L269.002 146.256L273.623 146.136L277.153 141.945L279.429 133.073L284.392 134.231L287.941 130.11L291.502 126.034L296.595 127.675L301.364 128.109L307.199 132.517L311.198 130.075L314.437 124.797L319.163 125.071L323.297 123.132L326.507 117.745L331.44 118.789L333.381 108.67L338.272 109.555L342.279 107.145L345.82 102.992L349.926 100.951L352.324 92.5369L354.783 84.3453L360.193 87.1701L364.429 85.6124L368.692 84.1565L372.667 81.6257L377.167 81.054L378.865 70.0256L381.114 61.0517L384.426 56.0467L391.978 66.8665L396.158 65.0989L398.923 58.0522L403.876 59.1723L409.312 62.0924L413.157 59.0782L417.959 59.6323L421.615 55.9121" stroke="#EAECF0" stroke-width="1.65254" stroke-linecap="round" stroke-linejoin="round"/>
<path d="M-7.76755 190.026L-4.05836 186.503L-0.127606 183.807L3.59352 180.329L8.5315 181.392L11.5334 175.229L15.817 173.849L18.3008 165.753L22.7598 165.029L27.766 166.346L32.2694 165.787L36.8205 165.406L41.254 164.586L44.9717 161.095L48.8871 158.342L54.4642 161.79L60.6327 167.445L64.8463 165.804L69.1759 164.597L72.6158 160.069L78.7707 165.673L83.6132 166.379L88.2887 166.463L91.7934 162.177L95.0953 157.133L100.485 159.882L105.575 161.511L109.589 159.126L112.954 154.318L116.513 150.236L122.341 154.619L128.944 161.896L132.719 158.621L138.273 161.98L142.617 160.829L147.48 161.612L151.856 160.576L156.707 161.314L160.472 158.001L165.012 157.576L170.134 159.326L174.371 157.774L179.843 160.828L185.438 164.346L190.946 167.533L193.733 160.569L197.111 155.812L201.55 155.012L206.645 156.66L212.031 159.395L216.983 160.509L221.776 161.031L226.288 160.504L230.699 159.601L236.09 162.356L241.16 163.909L243.718 156.092L247.55 153.027L251.982 152.201L256.623 152.157L262.161 155.459L266.622 154.741L271.857 156.911L274.838 150.672L279.468 150.583L283.962 149.992L287.996 147.678L291.815 144.568L296.034 142.947L299.691 139.227L304.748 140.735L308.236 136.385L312.913 136.475L315.24 127.793L319.411 125.994L322.701 120.906L328.322 124.52L332.73 123.605L336.289 119.522L340.217 116.813L344.188 114.269L348.578 113.284L353.417 113.978L359.132 117.941L362.754 114.094L370.741 126.536L376.258 129.761L381.06 130.315L386.255 132.338L390.938 132.447L395.518 132.174L398.552 126.133L403.816 128.41L408 126.662L412.044 124.385L417.394 126.988L419.687 118.179L425.034 120.768L430.185 122.626L433.708 118.41L438.258 118.023" stroke="#EAECF0" stroke-width="1.65254" stroke-linecap="round" stroke-linejoin="round"/>
<path d="M-5.80855 197.336L-0.967715 198.036L3.85949 198.685L7.91806 196.466L12.8015 197.325L17.6304 197.981L22.3247 198.135L26.1787 195.152L31.1559 196.361L34.0845 189.925L37.5449 185.474L42.6618 187.204L47.9424 189.546L53.3644 192.415L57.6377 190.997L63.9664 197.25L66.8405 190.61L72.3783 193.912L77.4322 195.408L81.1738 192.005L86.0692 192.909L90.5896 192.414L94.5527 189.838L99.3203 190.265L104.345 191.653L108.748 190.718L113.914 192.633L117.307 187.927L122.199 188.818L125.459 183.623L130.288 184.278L134.298 181.875L138.867 181.564L143.647 182.035L150.272 189.395L154.784 188.868L158.97 187.126L165.06 192.488L171.623 199.612L176.085 198.901L180.343 197.426L184.098 194.074L189.549 197.052L193.966 196.168L198.326 195.075L203.041 195.305L206.535 190.98L210.641 188.939L214.523 186.059L218.721 184.361L223.368 184.336L228.934 187.746L235.062 193.249L238.015 186.902L242.288 185.484L246.912 185.376L250.008 179.564L254.314 178.267L257.832 174.031L263.148 176.506L266.394 171.253L270.083 167.654L273.737 163.927L278.227 163.317L283.596 165.989L288.05 165.246L289.862 154.644L293.062 149.219L297.238 147.439L300.936 143.871L305.901 145.036L311.227 147.549L315.949 147.804L320.544 147.588L324.758 145.948L327.622 139.27L331.916 137.929L335.719 134.755L340.467 135.112L342.857 126.666L347.439 126.4L350.883 121.885L355.698 122.489L360.067 121.428L364.584 120.92L369.128 120.513L373.35 118.905L377.731 117.888L382.159 117.049L384.876 109.824L389.407 109.367L392.743 104.451L395.295 96.6091L401.794 103.498L406.594 104.046L409.502 97.5334L413.107 93.6223L416.029 87.1608L420.587 86.8053L423.061 78.6709L426.41 73.8058" stroke="#EAECF0" stroke-width="1.65254" stroke-linecap="round" stroke-linejoin="round"/>
<path d="M-7.03505 192.759L-3.45197 188.765L0.274266 185.306L6.56203 191.406L10.9052 190.249L12.5301 178.947L16.1353 175.036L21.0154 175.883L25.1898 174.096L31.6259 180.75L36.799 182.69L41.1166 181.438L44.1544 175.409L46.9347 168.42L51.7432 168.999L57.2419 172.154L62.9331 176.029L66.8434 173.256L71.732 174.135L76.4092 174.224L81.7596 176.826L86.3414 176.56L91.1635 177.19L96.0043 177.891L100.874 178.699L105.923 180.175L108.18 171.233L113.755 174.675L118.606 175.413L122.73 173.436L126.272 169.29L131.692 172.152L135.698 169.736L140.561 170.519L145.799 172.701L149.111 167.696L154.54 170.591L158.331 167.373L163.281 168.481L167.355 166.319L172.213 167.083L176.909 167.242L182.022 168.96L186.248 167.365L190.395 165.476L195.217 166.107L200.838 169.72L205.214 168.684L211.28 173.957L216.279 175.249L219.842 171.179L224.809 172.35L230.165 174.971L234.627 174.26L239.885 176.518L245.71 180.889L250.252 180.476L252.232 170.497L256.871 170.447L262.513 174.136L266.524 171.739L271.148 171.632L275.778 171.543L280.056 170.145L284.261 168.473L288.223 165.891L290.371 156.542L294.312 153.884L298.115 150.71L300.624 142.71L305.111 142.087L310.049 143.15L314.129 141.013L318.534 140.086L321.636 134.298L326.169 133.847L330.573 132.919L336.841 138.943L339.623 131.96L344.257 131.891L349.209 133.005L353.607 132.051L357.962 130.939L363.384 133.808L368.127 134.146L372.159 131.825L376.817 131.845L380.715 129.028L386.066 131.63L390.017 129.01L394.947 130.041L397.487 122.155L401.271 118.912L405.602 117.71L408.52 111.236L413.765 113.444L418.926 115.34L423.251 114.113L427.298 111.849L431.416 109.853L435.074 106.139" stroke="#EAECF0" stroke-width="1.65254" stroke-linecap="round" stroke-linejoin="round"/>
<path d="M-3.88858 204.504L1.06474 205.624L5.36021 204.289L9.92836 203.972L15.4458 207.197L18.3369 200.621L21.4582 194.904L28.0748 202.232L30.4223 193.627L35.7796 196.254L38.2497 188.107L42.097 185.099L46.9378 185.8L52.4246 188.911L57.3608 189.967L62.5783 192.073L66.3233 188.684L70.5898 187.24L74.9517 186.153L76.6294 175.049L80.1 170.635L83.8433 167.24L87.9837 165.326L90.9311 158.96L95.4702 158.534L99.9327 157.822L103.681 154.446L109.95 160.476L114.348 159.523L119.214 160.318L124.278 161.852L129.037 162.247L133.415 161.217L137.139 157.751L140.392 152.524L145.347 153.65L148.006 146.209L151.146 140.562L156.415 142.859L160.042 139.03L163.327 133.923L167.808 133.282L172.383 132.99L178.729 139.306L183.302 139.008L185.457 129.684L189.747 128.33L193.564 125.208L197.426 122.257L203.941 129.204L207.243 124.16L212.399 126.037L215.96 121.961L221.973 127.037L229.244 136.808L234.656 139.639L239.156 139.067L243.167 136.67L247.139 134.126L251.16 131.767L257.531 138.179L260.615 132.322L265.636 133.696L268.365 126.516L272.53 124.691L276.863 123.496L281.414 123.115L286.583 125.043L289.907 120.083L296.159 126.049L302.33 131.711L304.515 122.502L306.445 112.338L310.758 111.067L314.578 107.957L318.837 106.489L322.586 103.112L327.675 104.741L330.428 97.6496L334.731 96.34L338.709 93.822L344.281 97.2509L348.64 96.1512L352.371 92.7109L356.653 91.325L358.462 80.71L363.437 81.9128L368.293 82.6704L372.483 80.941L375.131 73.4554L377.94 66.5741L383.686 70.6518L387.908 69.0433L390.245 60.4001L394.486 58.8615L396.172 47.7886L403.334 57.1519L405.747 48.7886L410.443 48.9482L413.042 41.2846L415.531 33.2075" stroke="#EAECF0" stroke-width="1.65254" stroke-linecap="round" stroke-linejoin="round"/>
<path d="M-1.57452 213.136L1.65066 207.807L5.11785 203.38L9.82916 203.597L12.1119 194.751L15.5603 190.254L21.1749 193.842L23.6008 185.53L27.1702 181.485L30.4806 176.474L33.8643 171.736L39.8146 176.577L44.8156 177.875L49.4025 177.628L54.4973 179.276L59.6995 181.325L64.3988 181.497L69.8771 184.576L72.5262 177.097L77.2443 177.339L81.0336 174.115L85.7807 174.466L90.7988 175.827L97.0474 181.782L100.779 178.341L106.518 182.393L111.074 182.032L115.916 182.738L120.924 184.062L125.259 182.873L129.963 183.065L134.278 181.8L139.741 184.821L144.546 185.388L149.097 185.007L152.792 181.433L156.912 179.443L161.266 178.324L166.033 178.751L169.894 175.794L176.397 182.696L181.616 184.808L185.961 183.658L191.437 186.731L196.91 189.791L199.68 182.763L204.678 184.048L207.861 178.56L212.698 179.248L216.4 175.699L220.198 172.507L225.043 173.22L229.462 172.349L235.002 175.657L240.242 177.846L244.084 174.819L250.462 181.256L254.774 179.985L258.153 175.228L262.186 172.914L266.926 173.239L270.843 170.492L276.279 173.412L279.801 169.189L285.347 172.523L288.824 168.135L291.678 161.419L294.372 154.105L299.642 156.408L303.254 152.522L306.927 148.866L311.729 149.42L313.887 140.109L318.667 140.58L321.931 135.397L324.843 128.897L328.45 124.993L332.23 121.737L336.494 120.281L339.547 114.309L343.298 110.945L345.992 103.631L350.258 102.188L355.941 106.03L358.989 100.039L364.12 101.821L367.554 97.274L371.378 94.1771L374.327 87.8173L377.504 82.3098L382.326 82.9402L387.155 83.596L393.312 89.2066L398.045 89.5062L401.642 85.5634L405.169 81.3598L408.537 76.5647L412.084 72.4374L419.015 80.9356L425.592 88.1172L429.618 85.7773" stroke="#EAECF0" stroke-width="1.65254" stroke-linecap="round" stroke-linejoin="round"/>
<path d="M421.331 54.8599L419.067 63.7765L416.104 70.0855L414.522 81.5463L410.799 85.0185L407.72 90.8948L403.099 91.015L399.511 94.9896L396.593 101.464L391.356 99.288L386.718 99.3446L383.151 103.395L378.729 104.26L373.367 101.613L368.621 101.269L366.323 110.059L361.119 108.003L356.989 109.955L352.259 109.669L348.368 112.511L343.479 111.633L339.138 112.796L335.503 116.599L332.778 123.792L329.753 129.872L324.575 127.912L320.704 130.831L316.743 133.413L312.399 134.569L308.32 136.712L305.376 143.091L302.404 149.362L296.629 145.176L292.63 147.618L288.135 148.209L284.419 151.706L279.718 151.527L274.313 148.722L268.548 144.574L262.458 139.212L256.673 134.988L252.31 136.068L249.292 142.174L244.697 142.389L240.615 144.519L237.224 149.232L233.373 152.227L229.434 154.891L225.224 156.544L222.716 164.551L219.806 171.057L215.042 170.643L212.262 177.633L208.275 180.119L201.938 173.834L198.38 177.923L192.554 173.547L189.643 180.046L182.656 171.338L178.809 174.346L172.586 168.488L167.651 167.437L161.386 161.42L154.793 154.181L150.167 154.282L145.757 155.191L142.73 161.258L137.785 160.17L133.164 160.29L129.238 163.005L124.781 163.736L119.512 161.439L115.312 163.13L111.508 166.297L109.641 176.696L104.568 175.131L102.101 183.29L98.0018 185.357L94.1563 188.371L90.0721 190.495L84.933 188.681L80.1689 188.267L75.1934 187.064L70.3577 186.383L66.1764 188.144L62.8848 193.226L56.8952 188.238L51.7971 186.578L46.8898 185.629L42.3574 186.08L37.7671 186.315L32.7371 184.909L29.8562 191.523L23.9076 186.688L20.3126 190.637L15.6626 190.649L12.1715 194.987L8.91397 200.195L5.41614 204.507L0.481561 203.457L-2.87656 208.29" stroke="#EAECF0" stroke-width="1.65254" stroke-linecap="round" stroke-linejoin="round"/>
<path d="M-3.27844 206.781L1.65101 207.812L4.14676 199.761L9.38981 201.962L12.874 197.599L18.8874 202.676L22.2251 197.766L27.1511 198.784L31.0273 195.885L33.4805 187.674L39.8858 194.213L42.852 187.917L46.2714 183.313L49.8682 179.37L52.8701 173.207L56.7923 170.479L62.2825 173.603L66.9665 173.718L67.8943 159.815L72.2955 158.874L77.6834 161.616L82.3555 161.687L84.6655 152.942L89.3802 153.172L92.2406 146.481L95.0687 139.67L101.701 147.055L105.332 143.239L110.721 145.988L117.75 154.855L122.644 155.752L124.678 145.977L128.685 143.567L133.68 144.84L139.306 148.472L146.495 157.937L152.868 164.355L157.626 164.744L163.402 168.936L167.041 165.153L171.874 165.821L176.151 164.416L178.931 157.427L183.202 156.003L184.464 143.346L187.194 136.166L191.564 135.11L196.519 136.237L201.166 136.212L206.165 137.504L209.208 131.494L214.34 133.282L218.867 132.812L222.665 129.62L223.659 115.964L228.591 117.002L230.278 105.935L233.856 101.923L237.334 97.5345L242.604 99.8377L248.464 104.342L252.25 101.105L255.806 97.0093L260.272 96.3103L264.289 93.9385L268.005 90.4409L272.752 90.7914L275.669 84.3108L280.065 83.351L284.777 83.5679L287.219 75.3191L291.024 72.1523L293.97 65.7798L298.661 65.9204L302.98 64.6744L309.247 70.6984L312.106 64.0015L318.404 70.14L324.627 75.9986L331.631 84.7704L337.346 88.7336L340.965 84.8735L344.652 81.2678L351.899 90.949L355.085 85.4733L357.693 77.8415L361.344 74.1022L366.279 75.1523L371.171 76.0435L377.258 81.3933L382.49 83.5565L386.97 82.9084L391.209 81.3635L395.481 79.9394L398.876 75.246L405.549 82.7838L410.4 83.5223L417.078 91.0792L418.926 80.6106L422.579 76.8776L424.958 68.3871" stroke="#EAECF0" stroke-width="1.65254" stroke-linecap="round" stroke-linejoin="round"/>
<path d="M-3.1765 207.161L0.50883 203.549L6.02115 206.755L8.63961 199.161L13.0118 198.112L16.7806 194.812L21.3863 194.634L25.9578 194.33L30.7816 194.967L34.6766 192.137L39.4918 192.742L44.4963 194.053L48.5361 191.764L53.336 192.311L57.5991 190.855L61.7225 188.878L64.8113 183.04L69.8038 184.306L74.0277 182.704L77.4165 177.985L80.9604 173.845L84.2367 168.707L87.6408 164.045L93.177 167.34L97.3685 165.617L102.07 165.796L105.675 161.885L110.925 164.112L114.204 158.986L117.394 153.523L120.355 147.208L124.986 147.126L129.21 145.524L134.632 148.393L139.389 148.782L144.089 148.954L148.394 147.657L153.443 149.133L158.037 148.911L163.718 152.747L167.079 147.927L171.78 148.106L175.8 145.74L179.523 142.268L183.239 138.771L187.033 135.566L190.816 132.316L196.246 135.217L199.516 130.053L202.916 125.379L206.382 120.946L209.44 114.993L216.447 123.778L220.251 120.611L223.702 116.121L227.636 113.438L232.313 113.528L235.78 109.101L239.829 106.844L243.228 102.163L246.824 98.2206L251.438 98.0749L255.361 95.347L258.381 89.2543L261.56 83.7532L266.793 85.9164L270.831 83.621L275.057 82.0252L280.211 83.8958L283.992 80.6399L288.153 78.8024L291.121 72.5126L296.188 74.0588L301.213 75.4461L305.144 72.7499L309.013 69.8248L313.529 69.3103L316.788 64.1081L321.014 62.5123L324.51 58.1942L329.04 57.7369L333.668 57.6422L338.216 57.2485L340.638 48.9233L345.91 51.2328L351.552 54.9226L355.123 50.8843L359.807 50.9995L363.95 49.092L367.398 44.5958L372.45 46.0849L376.867 45.2014L380.295 40.6289L384.421 38.6642L389.385 39.8225L395.555 45.4839L399.641 43.3666L403.941 42.0506L409.455 45.2633L415.089 48.9213L419.85 49.3226" stroke="#EAECF0" stroke-width="1.65254" stroke-linecap="round" stroke-linejoin="round"/>
<path d="M-4.72974 201.362L0.85927 204.854L3.69758 198.081L7.66071 195.506L10.3064 188.014L15.3194 189.356L18.3111 183.156L23.0241 183.379L28.3916 186.045L33.1557 186.459L37.8074 186.453L42.9959 188.451L48.5713 191.893L54.4091 196.314L59.9896 199.775L64.0771 197.664L69.3389 199.935L73.0123 196.278L77.3453 195.083L82.0242 195.179L84.3137 186.358L87.2594 179.985L91.4543 178.275L95.3732 175.534L100.444 177.093L105.271 177.743L109.113 174.716L114.593 177.801L119.792 179.837L124.541 180.194L127.79 174.954L130.872 169.09L135.807 170.14L139.095 165.046L143.528 164.227L148.577 165.703L152.663 163.586L157.505 164.292L161.172 160.61L166.296 162.366L168.89 154.684L174.249 157.317L177.684 152.77L180.071 144.312L186.885 152.377L190.782 149.554L195.018 147.996L198.582 143.933L204.646 149.2L208.533 146.338L212.191 142.624L217.492 145.042L221.934 144.254L227.298 146.907L232.594 149.306L238.479 153.905L244.459 158.854L247.442 152.621L251.616 150.835L257.463 155.288L262.213 155.651L267.906 159.531L271.992 157.414L276.77 157.879L281.375 157.702L285.806 156.869L289.661 153.893L295.52 158.391L300.833 160.853L303.172 152.216L309.662 159.073L314.005 157.916L319.403 160.696L323.909 160.144L328.25 158.98L331.216 152.684L337.371 158.288L340.542 152.756L344.43 149.9L350.574 155.466L355.5 156.485L359.157 152.765L364.257 154.432L369.648 157.186L371.69 147.443L377.291 150.98L377.713 135.188L381.867 133.325L386.207 132.155L391.33 133.911L395.657 132.691L399.097 128.163L403.898 128.717L408.246 127.579L413.541 129.971L417.458 127.224L420.427 120.94L425.401 122.137L430.855 125.127L436.179 127.627L439.658 123.246" stroke="#EAECF0" stroke-width="1.65254" stroke-linecap="round" stroke-linejoin="round"/>
<path d="M-2.66181 209.081L1.31325 206.551L5.74165 205.712L10.3115 205.401L13.6986 200.676L17.372 197.019L20.333 190.704L25.3238 191.964L28.5064 186.475L32.8479 185.312L36.3389 180.975L41.1014 181.383L44.7816 177.751L48.9952 176.111L51.5898 168.428L54.948 163.595L59.3337 162.597L65.0779 166.669L69.421 165.512L71.777 156.938L74.5114 149.777L81.0173 156.692L84.3635 151.814L88.5771 150.174L92.4704 147.337L95.1434 139.947L98.6736 135.756L102.339 132.068L107.101 132.476L110.853 129.112L117.541 136.707L121.095 132.605L126.594 135.76L131.634 137.205L135.313 133.567L139.507 131.857L143.314 128.697L146.352 122.668L149.016 115.246L153.012 112.791L157.646 112.722L160.796 107.113L164.18 102.375L172.037 114.333L176.307 112.903L180.11 109.729L184.844 110.029L188.817 107.492L192.313 103.174L196.74 102.328L200.275 98.1567L205.842 101.567L211.356 104.779L213.675 96.0661L218.156 95.4243L223.22 96.9579L226.774 92.856L231.681 93.8044L236.952 96.1076L241.164 94.4609L244.481 89.475L249.656 91.4219L255.741 96.7654L259.878 94.8388L263.965 92.7278L267.458 88.397L274.107 95.8458L277.164 89.8867L281.977 90.4852L286.09 88.4696L289.694 84.5523L295.506 88.878L300.1 88.6561L302.49 80.2101L308.392 84.873L311.398 78.7231L315.047 74.9774L318.38 70.0487L322.529 68.1667L328.356 72.5497L332.993 72.4868L336.542 68.3659L340.297 65.0146L343.197 58.4704L346.565 53.6752L350.518 51.0618L355.146 50.967L360.806 54.7267L366.269 57.7486L369.774 53.4623L374.05 52.0573L377.731 48.4262L381.866 46.4933L384.52 39.0331L388.867 37.8889L392.939 35.7207L398.77 40.1164L401.419 32.6372L408.416 41.3835L413.078 41.4159L416.451 36.6399" stroke="#EAECF0" stroke-width="1.65254" stroke-linecap="round" stroke-linejoin="round"/>
<path d="M-2.66181 209.081L0.836053 204.77L1.83715 191.14L3.29329 179.208L8.64882 181.83L12.6716 179.477L16.1286 175.012L22.447 181.227L27.4906 182.685L31.2799 179.46L36.3611 181.058L40.0277 177.376L45.448 180.238L50.6348 182.23L56.3755 186.289L59.2359 179.598L60.7313 167.813L65.1153 166.808L67.6605 158.941L72.0957 158.128L76.652 157.766L81.2235 157.461L86.5126 159.834L90.7654 158.34L96.8726 163.766L102.555 167.609L107.077 167.12L113.317 173.042L116.018 165.754L121.147 167.529L125.062 164.775L128.805 161.38L132.143 156.47L138.32 162.157L140.325 152.273L144.174 149.272L148.546 148.223L152.932 147.225L155.397 139.059L160.809 141.89L164.964 140.034L169.803 140.728L174.537 141.027L179.64 142.707L183.605 140.138L186.387 133.155L190.604 131.527L195.459 132.278L199.393 129.595L202.151 122.523L206.545 121.557L210.512 118.994L215.714 121.043L220.522 121.622L223.466 115.244L227.462 112.789L229.958 104.737L234.425 104.045L241.538 113.224L245.762 111.621L249.626 108.677L253.968 107.514L256.422 99.3095L258.085 88.1476L262.121 85.8458L268.958 93.9942L273.451 93.397L277.032 89.3969L281.428 88.4372L285.545 86.4343L291.335 90.6774L296.103 91.1042L300.093 88.6306L303.516 84.0391L306.599 78.1818L311.536 79.2383L316.037 78.6728L318.528 70.6021L322.268 67.1936L326.626 66.0939L334.037 76.3857L338.04 73.9567L340.556 65.9814L347.306 73.8054L350.921 69.9326L355.165 68.4067L360.725 71.7911L364.573 68.7833L369.39 69.3946L374.493 71.0744L378.282 67.8503L382.905 67.7365L385.808 61.205L389.355 57.0777L390.246 43.0345L394.858 42.8825L397.724 36.2111L403.198 39.2775L408.227 40.6774L412.819 40.4491L414.444 29.1473" stroke="#EAECF0" stroke-width="1.65254" stroke-linecap="round" stroke-linejoin="round"/>
<path d="M-2.66181 209.081L0.747429 204.439L3.98284 199.148L7.76191 195.886L9.4004 184.635L15.7836 191.091L18.6492 184.42L22.5049 181.444L27.4378 182.487L31.3328 179.658L36.8775 182.985L41.8461 184.162L47.3687 187.407L49.982 179.794L51.6751 168.746L56.3267 168.741L59.1054 161.745L61.458 153.159L65.7637 151.862L72.2236 158.605L78.2335 163.668L81.3224 157.83L85.3571 155.522L89.1958 152.482L94.1747 153.698L97.7935 149.838L99.1628 137.582L104.869 141.513L110.291 144.382L114.558 142.939L119.861 145.363L122.839 139.112L126.679 136.078L131.377 136.244L137.54 141.88L143.663 147.364L146.099 139.09L152.015 143.803L154.841 136.986L159.61 137.419L162.938 132.471L169.077 138.018L173.438 136.925L176.792 132.079L180.551 128.74L186.169 132.341L190.873 132.532L196.011 134.339L199.768 130.994L204.145 129.965L208.314 128.159L212.997 128.268L216.207 122.881L220.507 121.565L224.627 119.575L229.713 121.191L235.483 125.358L240.499 126.713L243.614 120.971L247.025 116.334L249.474 108.111L253.027 104.003L259.517 110.86L263.324 107.7L266.361 101.671L270.033 98.0076L274.185 96.1383L276.906 88.9263L282.737 93.322L287.575 94.0096L290.836 88.8138L296.892 94.0491L301.659 94.4759L304.901 89.2101L309.227 87.9896L312.85 84.1422L318.785 88.9259L322.55 85.6128L327.512 86.7647L329.297 76.0607L334.453 77.9377L337.995 73.7913L343.639 77.4874L348.846 79.5553L353.977 81.3368L358.121 79.4357L362.619 78.8576L368.45 83.2533L373.526 84.8314L378.777 87.0646L382.862 84.9409L385.08 75.8524L386.727 64.6333L391.208 63.9915L395.462 62.5038L399.287 59.4133L401.301 49.5617L405.065 46.2422L408.414 41.3771L410.102 30.3106L414.454 29.1854" stroke="#EAECF0" stroke-width="1.65254" stroke-linecap="round" stroke-linejoin="round"/>
<path d="M-6.94098 193.111L0.31482 202.824L5.07385 203.219L7.11285 193.463L10.4301 188.477L14.9113 187.835L20.0129 189.509L22.1848 180.249L27.7704 183.728L31.9756 182.056L36.2182 180.524L42.264 185.721L47.8274 189.118L53.4471 192.725L56.3791 186.302L61.2353 187.06L66.826 190.559L70.646 187.449L74.5563 184.676L78.0422 180.32L84.3266 186.408L86.8888 178.604L88.7114 168.04L92.9267 166.406L98.0829 168.283L104.469 174.752L110.151 178.588L114.071 175.854L118.658 175.607L124.872 181.434L127.234 172.879L131.853 172.753L135.917 170.553L138.013 161.013L142.035 158.654L148.186 164.245L154.971 172.203L156.946 162.205L163.298 168.547L169.707 175.099L176.138 181.734L181.611 184.794L186.759 186.639L190.171 182.009L195.3 183.784L200.32 185.152L203.291 178.875L204.34 165.424L208.762 164.559L213.941 166.525L216.618 159.148L221.157 158.722L227.336 164.416L231.157 161.312L235.114 158.712L239.871 159.1L245.17 161.512L248.612 156.99L251.955 152.099L254.473 144.13L258.495 141.778L262.261 138.465L265.476 133.097L268.699 127.761L273.678 128.977L277.517 125.937L282.728 128.018L285.22 119.953L288.179 113.632L291.408 108.315L297.852 115.001L299.476 103.692L302.169 96.3785L306.875 96.5763L311.863 97.8236L317.101 100.006L319.765 92.584L323.994 91.0009L327.841 87.9931L333.66 92.3443L339.58 97.0707L345.517 101.861L349.926 100.952L352.64 93.7144L357.138 93.1363L362.779 96.8197L365.233 88.6153L370.103 89.4238L375.779 93.2407L379.516 89.8195L384.593 91.4039L386.384 80.719L391.879 83.8617L394.526 76.3761L397.409 69.7683L400.351 63.3831L405.894 66.7039L410.438 66.2975L416.278 70.725L420.175 67.9017L424.058 65.0274" stroke="#EAECF0" stroke-width="1.65254" stroke-linecap="round" stroke-linejoin="round"/>
<path d="M-3.60973 205.542L0.605637 203.908L6.33781 207.935L10.3981 205.722L15.7298 208.255L21.1824 211.238L25.5631 210.221L29.4581 207.392L33.2133 204.04L36.9174 200.498L40.0897 194.972L43.1428 189L47.445 187.69L52.0405 187.475L56.7893 187.831L60.6535 184.887L64.3474 181.307L69.7387 184.062L73.7138 181.531L78.2359 181.042L80.3124 171.426L84.1545 168.399L88.191 166.097L91.3429 160.494L96.9455 164.037L100.721 160.762L105.346 160.655L109.856 160.121L113.979 158.144L120.008 163.277L124.893 164.143L128.089 158.706L132.565 158.045L137.779 160.138L141.458 156.5L145.535 154.351L149.662 152.387L153.139 147.999L157.624 147.37L161.304 143.738L164.732 139.166L169.824 140.801L173.616 137.59L176.927 132.578L181.525 132.376L187.084 135.754L191.35 134.311L195.269 131.57L198.764 127.245L202.812 124.988L207.346 124.544L210.551 119.138L214.645 117.052L219.581 118.109L223.13 113.988L227.639 113.448L232.988 116.044L236.883 113.214L241.273 112.235L244.666 107.529L247.974 102.511L252.052 100.362L255.901 97.3606L259.702 94.181L263.421 90.6962L267.248 87.612L271.467 85.9908L277.427 90.8699L282.768 93.4338L286.773 91.0175L291.517 91.3553L294.095 83.6089L298.443 82.4711L302.437 80.0102L308.583 85.5827L312.967 84.5784L317.363 83.6186L322.402 85.0567L325.792 80.3443L329.769 77.8199L333.798 75.4926L338.172 74.4502L342.759 74.2028L345.807 68.2119L348.354 60.351L353.759 63.1567L358.509 63.5199L363.657 65.3651L367.024 60.5636L370.98 57.9628L373.205 48.8999L378.712 52.0871L383.243 51.6298L388.131 52.5082L393.638 55.6955L398.111 55.022L401.062 48.6685L405.516 47.925L410.514 49.2105L415.68 51.1257L418.622 44.7404" stroke="#EAECF0" stroke-width="1.65254" stroke-linecap="round" stroke-linejoin="round"/>
<path d="M432.572 96.8119L428.103 97.4982L422.406 93.6049L416.204 87.8226L411.801 88.7569L407.359 89.5449L402.186 87.6043L395.784 81.0779L390.193 77.5789L383.721 70.7917L377.74 65.8362L373.682 68.0553L370.303 72.8123L363.79 65.8724L358.57 63.7537L352.44 58.2449L348.919 62.4675L343.945 61.2711L340.278 64.9531L336.243 67.2613L332.437 70.4218L328.486 73.0416L324.778 76.571L320.449 77.7788L315.75 77.6064L310.89 76.8362L307.065 79.9267L302.337 79.6461L296.647 75.7783L291.072 72.3367L285.892 70.3706L283.225 77.7862L279.013 79.4329L274.965 81.6902L271.738 87.0132L267.044 86.8599L261.467 83.4119L257.04 84.2572L251.501 80.9491L247.166 82.1378L241.87 79.7393L237.68 81.4686L234.637 87.4786L230.553 89.6023L225.958 89.8179L222.951 95.9614L216.818 90.4399L213.729 96.2781L209.187 96.6909L205.174 99.0818L200.567 99.2528L196.515 101.497L192.07 102.273L187.991 104.416L184.329 108.117L180.453 111.016L177.557 117.573L173.766 120.791L170.806 127.113L166.305 127.678L162.36 130.323L157.857 130.882L153.952 133.674L147.48 126.887L145.006 135.021L141.217 138.245L137.01 139.911L133.514 144.229L130.546 150.519L124.947 146.988L119.973 145.792L113.883 140.429L109.911 142.973L105.204 142.768L101.101 144.822L94.9015 139.053L91.6933 144.446L87.8205 147.358L83.9085 150.124L80.9305 156.376L76.1408 155.866L71.9646 157.647L68.3236 161.424L65.0336 166.512L61.6005 171.065L58.2782 176.032L53.4714 175.459L50.1917 180.585L46.0088 182.34L42.7256 187.453L39.0607 191.141L34.1926 190.339L29.6262 190.663L26.3993 195.986L22.7361 199.68L18.7287 202.09L13.8913 201.403L9.70826 203.158L5.33783 204.213L1.34061 206.661L-2.07716 211.272" stroke="#EAECF0" stroke-width="1.65254" stroke-linecap="round" stroke-linejoin="round"/>
<path d="M-2.06915 211.296L1.9792 209.039L5.55376 205.013L8.89994 200.136L14.7872 204.741L19.3741 204.494L21.5733 195.335L27.314 199.394L33.3632 204.604L37.5615 202.906L42.0529 202.303L46.4234 201.248L52.8526 207.876L56.6044 204.512L60.4312 201.428L65.6078 203.381L68.7972 197.918L74.2328 200.838L79.3889 202.715L84.0696 202.818L87.9066 199.772L92.2685 198.685L98.771 205.586L101.58 198.705L106.496 199.685L110.495 197.243L114.438 194.592L118.329 191.749L121.183 185.033L125.32 183.107L130.955 186.771L136.493 190.073L139.658 184.521L143.751 182.429L146.811 176.483L151.592 176.96L155.562 174.41L160.768 176.472L164.898 174.52L168.912 172.135L173.163 170.635L177.268 168.588L182.25 169.816L185.671 165.218L190.224 164.843L196.929 172.502L201.67 172.827L205.321 169.088L209.183 166.137L213.775 165.909L217.759 163.41L220.475 156.179L223.947 151.772L228.68 152.071L234.535 156.556L240.85 162.758L245.488 162.701L252.229 170.494L256.91 170.596L259.442 162.678L264.243 163.232L267.404 157.661L272.829 160.543L277.275 159.768L281.788 159.247L286.303 158.732L291.804 161.894L295.215 157.258L299.948 157.557L304.535 157.31L308.776 155.772L313.024 154.258L316.776 150.894L320.076 145.845L324.122 143.581L328.227 141.534L334.014 145.764L337.52 141.484L341.418 138.667L347.379 143.546L350.514 137.88L357.115 145.151L361.873 145.539L366.402 145.076L372.729 151.322L378.357 154.961L382.778 154.097L387.324 153.697L391.224 150.886L394.935 147.369L400.591 151.11L405.154 150.773L408.745 146.812L413.423 146.901L419.158 150.941L423.57 150.038L427.877 148.748L433.137 151.013L436.81 147.356L441.575 147.77L446.715 149.59" stroke="#EAECF0" stroke-width="1.65254" stroke-linecap="round" stroke-linejoin="round"/>
<path d="M-4.4134 202.54L0.0252238 201.739L5.62617 205.277L12.0469 211.873L16.3815 210.684L18.6216 201.679L21.7071 195.828L27.3779 199.625L31.6768 198.303L36.5977 199.302L42.6792 204.633L48.6551 209.569L52.7325 207.42L51.2231 184.422L57.3013 189.74L60.7957 185.415L64.7163 182.681L71.5664 190.88L78.0434 197.686L82.3099 196.243L89.0084 203.877L95.7427 211.643L100.459 211.879L106.287 216.262L114.119 228.125L115.522 215.997L119.204 212.372L122.579 207.602L130.043 218.091L132.905 211.407L136.437 207.222L140.528 205.124L145.205 205.214L148.964 201.875L151.62 194.421L157.761 199.975L165.898 212.976L167.603 201.973L172.425 202.604L178.136 206.554L180.961 199.73L183.407 191.494L185.743 182.844L192.285 189.892L197.673 192.635L198.51 178.394L200.818 169.643L205.245 168.798L210.512 171.088L215.135 170.974L220.301 172.889L226.238 177.679L232.101 182.196L236.473 181.147L239.944 176.734L244.822 177.574L248.438 173.701L256.065 184.801L261.702 188.471L263.611 178.232L269.638 183.359L273.005 178.557L274.749 167.701L279.569 168.325L282.261 161.005L289.478 170.571L293.272 167.366L301.273 179.859L301.989 165.167L301.775 147.002L309.711 159.253L309.26 140.204L310.679 128.133L313.726 122.142L319.14 124.979L327.512 138.858L333.796 144.946L334.949 131.882L339.015 129.689L344.752 133.735L354.009 150.915L356.831 144.084L361.12 142.724L365.695 142.432L367.02 130.011L370.138 124.281L370.928 109.862L375.007 107.719L380.42 110.557L386.52 115.957L390.879 114.858L394.232 110.005L396.562 101.337L399.327 94.29L406.898 105.18L411.15 103.679L413.743 95.9903L417.307 91.9266L421.817 91.393L425.054 86.1081L427.499 77.8657" stroke="#EAECF0" stroke-width="1.65254" stroke-linecap="round" stroke-linejoin="round"/>
<path d="M-5.50178 198.48L-1.06316 197.68L4.53779 201.217L10.9585 207.813L15.2932 206.624L17.5333 197.619L20.6187 191.768L26.2895 195.566L30.5884 194.243L35.5093 195.243L41.5909 200.573L47.5668 205.51L51.6441 203.361L50.1348 180.362L56.2129 185.68L59.7074 181.355L63.6279 178.621L70.4781 186.82L76.955 193.627L81.2215 192.183L87.92 199.817L94.6543 207.583L99.3707 207.819L105.198 212.203L113.03 224.065L114.433 211.937L118.115 208.312L121.491 203.542L128.954 214.031L131.816 207.347L135.348 203.163L139.439 201.064L144.117 201.154L147.875 197.815L150.531 190.362L156.672 195.915L164.809 208.916L166.514 197.914L171.336 198.544L177.048 202.494L179.873 195.67L182.319 187.434L184.655 178.785L191.196 185.833L196.584 188.575L197.422 174.334L199.73 165.583L204.157 164.738L209.424 167.028L214.046 166.914L219.213 168.829L225.149 173.62L231.013 178.136L235.385 177.087L238.855 172.674L243.734 173.514L247.349 169.641L254.977 180.741L260.613 184.412L262.523 174.172L268.55 179.299L271.916 174.498L273.661 163.641L278.481 164.265L281.173 156.945L288.389 166.512L292.184 163.307L300.184 175.799L300.901 161.107L300.687 142.942L308.622 155.193L308.172 136.144L309.59 124.073L312.638 118.082L318.052 120.919L326.424 134.799L332.708 140.886L333.861 127.823L337.926 125.629L343.664 129.675L352.92 146.855L355.743 140.025L360.032 138.664L364.607 138.372L365.932 125.951L369.049 120.221L369.839 105.802L373.918 103.659L379.332 106.497L385.432 111.898L389.791 110.798L393.144 105.946L395.474 97.2769L398.239 90.2302L405.81 101.12L410.061 99.6196L412.654 91.9305L416.218 87.8668L420.729 87.3332L423.966 82.0483L426.41 73.8058" stroke="#EAECF0" stroke-width="1.65254" stroke-linecap="round" stroke-linejoin="round"/>
<path d="M-2.42834 209.957L0.331567 202.891L5.85411 206.135L12.1913 212.42L14.2883 202.88L19.7733 205.985L21.8822 196.489L26.3975 195.975L30.4527 193.743L33.2279 186.734L35.6776 178.511L36.9838 166.02L40.8856 163.215L46.2309 165.798L48.7488 157.829L52.3063 153.74L56.9886 153.849L61.8158 154.499L67.8974 159.829L72.7195 160.46L77.5978 161.3L82.921 163.8L85.3485 155.494L89.5026 153.631L94.2087 153.829L98.7786 153.518L103.885 155.211L108.179 153.869L112.965 154.366L117.784 154.984L122.402 154.851L126.124 151.379L130.449 150.152L135.741 152.538L139.396 148.811L145.203 153.118L150.896 156.998L153.987 151.166L160.145 156.783L162.031 146.455L165.428 141.768L172.258 149.891L175.837 145.884L179.243 141.229L181.456 132.121L184.144 124.788L188.518 123.746L191.633 118.003L196.927 120.395L201.929 121.7L207.101 123.634L214.171 132.654L219.002 133.316L221.073 123.681L227.296 129.539L227.203 111.826L231.652 111.064L237.716 116.331L243.184 119.372L247.521 118.189L252.856 120.734L256.928 118.566L261.499 118.261L268.341 126.429L273.468 128.198L278.693 130.329L285.118 136.945L289.687 136.627L293.44 133.27L297.205 129.956L301.678 129.283L304.619 122.891L308.756 120.965L315.026 127.002L319.866 127.695L325.727 132.206L330.595 133.008L335.888 135.394L342.583 143.014L347.189 142.837L349.497 134.085L353.223 130.626L353.696 115.024L357.417 111.546L362.249 112.214L369.764 122.894L375.87 128.314L380.024 126.451L384.6 126.166L386.605 116.282L391.678 117.847L395.401 114.375L398.938 110.21L406.71 121.85L412.326 125.444L415.335 119.307L416.43 106.027L420.959 105.564L423.746 98.5997L428.057 97.3219L433.012 98.4483" stroke="#EAECF0" stroke-width="1.65254" stroke-linecap="round" stroke-linejoin="round"/>
<path d="M-1.90438 211.91L1.78096 208.297L6.97628 210.321L12.4409 213.349L16.8983 212.618L21.4681 212.307L24.8416 207.531L29.0825 205.993L33.6234 205.573L36.8008 200.066L42.7426 204.875L47.1216 203.852L52.5555 206.766L55.445 200.183L57.5095 190.522L62.7833 192.838L66.5231 189.43L70.1113 185.455L74.3045 183.738L78.9954 183.879L83.8635 184.681L88.5697 184.879L94.7808 190.693L99.8397 192.207L102.55 184.957L105.915 180.149L109.943 177.816L113.836 174.98L118.534 175.146L123.668 176.94L128.188 176.445L134.34 182.036L139.614 184.352L144.233 184.225L147.942 180.702L151.068 175.004L154.948 172.117L158.857 169.338L162.973 167.335L166.6 163.507L170.664 161.307L173.17 153.293L178.838 157.079L184.58 161.144L189.136 160.782L192.31 155.262L197.567 157.514L200.392 150.69L203.719 145.742L206.782 139.808L210.251 135.388L213.962 131.872L217.668 128.336L221.679 125.939L225.233 121.837L228.276 115.827L232.101 112.736L237.289 114.734L239.057 103.967L243.281 102.365L248.042 102.766L251.288 97.5129L254.484 92.0754L258.384 89.2647L262.297 86.505L267.232 87.5551L270.604 82.7727L275.593 84.0264L280.638 85.49L284.814 83.7097L288.343 79.5125L293.334 80.7725L297.265 78.0763L300.849 74.089L305.307 73.3582L310.904 76.8826L316.234 79.4083L321.644 82.233L324.493 75.498L329.535 76.9488L332.828 71.8739L338.61 76.0851L343.774 77.9939L347.098 73.0335L352.128 74.4398L356.332 72.7613L361.302 73.945L366.049 74.2955L369.702 70.5626L374.649 71.6572L379.261 71.5053L383.949 71.6331L387.605 67.9129L391.372 64.6062L395.889 64.098L399.941 61.8534L404.293 60.7283L409.137 61.4413L412.323 55.9656L417.944 59.579L421.527 55.5853" stroke="#EAECF0" stroke-width="1.65254" stroke-linecap="round" stroke-linejoin="round"/>
<path d="M-2.98771 207.869L0.818627 204.709L5.71059 205.6L9.57147 202.643L13.5789 200.233L17.5591 197.721L21.4046 194.707L25.0712 191.025L29.999 192.05L33.611 188.164L37.7003 186.06L41.4964 182.861L44.5579 176.921L49.0937 176.483L54.5702 179.555L59.4554 180.421L64.1906 180.727L68.1332 178.076L73.1138 179.297L76.4004 174.197L80.3584 171.603L84.5772 169.981L88.6937 167.978L92.8698 166.198L96.8296 163.61L101.965 165.411L105.199 160.113L108.693 155.789L111.564 149.136L116.446 149.989L122.205 154.118L126.073 151.186L130.389 149.928L133.94 145.813L138.031 143.715L142.403 142.666L145.803 137.992L149.632 134.914L155.362 138.935L160.369 140.252L165.663 142.644L170.921 144.903L174.511 140.934L179.538 142.328L183.811 140.91L188.471 140.936L191.754 135.823L196.196 135.035L201.671 138.102L206.411 138.427L211.385 139.623L215.888 139.064L220.1 137.417L225.159 138.932L228.835 135.282L233.34 134.729L237.108 131.428L242.254 133.267L246.742 132.651L252.06 135.132L256.894 135.807L260.955 133.594L265.564 133.43L270.115 133.049L275.859 137.12L281.45 140.619L287.095 144.321L292.381 146.682L295.51 140.996L300.004 140.399L306.412 146.951L310.841 146.112L314.855 143.728L319.88 145.115L325.218 147.672L329.488 146.242L335.992 153.15L339.443 148.66L343.43 146.174L347.739 144.89L352.637 145.806L355.394 138.728L359.7 137.431L364.365 137.476L368.611 135.957L373.36 136.314L377.879 135.812L382.044 133.993L386.413 132.932L390.637 131.33L395.751 133.048L400.503 133.417L405.192 133.551L409.593 132.611L413.798 130.939L417.479 127.307L421.837 126.208L426.134 124.879L431.072 125.942L434.597 121.732L438.087 117.388" stroke="#EAECF0" stroke-width="1.65254" stroke-linecap="round" stroke-linejoin="round"/>
<path d="M-1.37341 213.886L2.41929 210.675L7.89923 213.761L11.6408 210.358L14.6717 204.304L18.8223 202.428L21.7424 195.96L26.0515 194.676L28.537 186.586L32.2411 183.044L33.8643 171.736L38.8074 172.818L43.6363 173.474L48.9185 175.821L54.3354 178.672L59.2819 179.766L63.9574 179.85L66.2026 170.863L72.6165 177.434L77.125 176.894L80.4508 171.94L87.8071 182.028L94.6164 190.075L99.4913 190.902L104.526 192.328L109.647 194.071L115.127 197.157L122.877 208.714L128.137 210.979L131.345 205.586L137.166 209.944L139.851 202.598L142.626 195.59L147.52 196.487L151.682 194.656L158.495 202.715L163.786 205.095L165.445 193.92L168.172 186.734L170.129 176.672L175.383 178.912L180.566 180.89L186.233 184.675L191.926 188.556L194.417 180.485L196.795 171.995L198.863 162.347L204.057 164.363L209.129 165.929L214.809 169.758L218.105 164.696L222.343 163.145L227.274 164.182L233.011 168.228L237.377 167.154L240.588 161.774L246.758 167.435L253.385 174.801L255.351 164.772L259.71 163.672L264.148 162.871L268.781 162.795L272.662 159.915L277.573 160.876L281.351 157.607L283.816 149.441L288.372 149.079L292.747 148.043L294.624 137.683L298.508 134.808L305.572 143.809L309.67 141.736L313.429 138.398L318.985 141.769L326.03 150.694L330.815 151.184L334.002 145.715L338.985 146.943L344.004 148.311L347.879 145.405L352.169 144.051L356.574 143.123L359.997 138.532L362.211 129.43L368.092 134.011L369.306 121.176L372.909 117.259L378.531 120.872L381.035 112.852L384.01 106.588L388.542 106.137L393.984 109.082L400.748 116.957L407.692 125.506L409.238 113.912L414.041 114.472L419.33 116.845L422.743 112.216L426.287 108.076L429.326 102.053L434.811 105.158" stroke="#EAECF0" stroke-width="1.65254" stroke-linecap="round" stroke-linejoin="round"/>
<path d="M-3.97072 204.201L0.25317 202.598L2.66371 194.229L7.41251 194.586L10.6258 189.212L15.666 190.656L20.0092 189.499L24.8824 190.32L29.1165 188.756L33.441 187.529L38.0483 187.358L45.3075 197.084L48.1935 190.489L50.1269 180.338L54.3763 178.832L60.4493 184.131L62.79 175.5L66.4276 171.71L70.2766 168.709L73.6602 163.971L77.2263 159.913L81.762 159.475L84.994 154.171L88.8328 151.132L95.3642 158.141L99.8438 157.493L105.927 162.83L109.929 160.401L115.912 165.363L121.344 168.271L128.266 176.737L132.59 175.51L137.569 176.726L141.212 172.955L144.027 166.092L148.187 164.255L151.443 159.04L152.918 147.178L158.393 150.245L160.389 140.329L161.874 128.506L165.793 125.765L169.526 122.331L175.552 127.452L180.72 129.374L185.968 131.594L189.609 127.817L194.549 128.886L198.955 127.964L203.606 127.959L206.204 120.289L210.856 120.283L215.941 121.893L222.467 128.884L226.912 128.108L230.966 125.87L237.267 132.021L240.879 128.136L246.606 132.143L251.066 131.419L257.529 138.175L260.74 132.794L265.533 133.316L270.35 133.928L275.426 135.506L282.263 143.654L286.535 142.23L291.408 143.051L295.572 141.227L300.578 142.544L305.395 143.155L309.682 141.788L314.179 141.204L318.701 140.715L323.751 142.197L328.749 143.483L332.69 140.825L335.631 134.433L340.814 136.412L343.732 129.938L348.563 130.6L354.593 135.74L359.518 136.752L361.414 126.461L366.582 128.383L370.148 124.325L375.76 127.907L381.936 133.588L385.831 130.758L387.336 119.011L388.399 105.61L392.447 103.353L396.565 101.356L401.536 102.54L404.539 96.3836L410.058 99.6153L416.786 107.357L420.388 103.433L423.461 97.5375L425.812 88.9452L430.811 90.237" stroke="#EAECF0" stroke-width="1.65254" stroke-linecap="round" stroke-linejoin="round"/>
<path d="M-4.80678 201.075L1.37192 206.768L5.1186 203.385L8.26539 197.763L10.6248 189.203L13.095 181.056L16.8604 177.742L23.2181 184.104L29.1104 188.728L34.5801 191.776L37.8957 186.783L41.961 184.59L45.268 179.565L49.8106 179.153L54.2322 178.288L58.6947 177.577L62.2079 173.322L68.2656 178.564L73.12 179.315L77.6422 178.826L81.7843 176.918L84.5033 169.7L86.7519 160.726L91.1581 159.805L97.9231 167.686L102.052 165.727L106.204 163.858L110.503 162.536L115.309 163.109L118.388 157.233L123.669 159.574L129.212 162.895L135.029 167.24L137.636 159.601L142.466 160.263L144.48 150.412L149.654 152.359L154.65 153.638L159.602 154.752L163.528 152.036L168.604 153.614L173.075 152.934L178.261 154.926L183.898 158.597L188.807 159.551L192.683 156.652L197.345 156.684L201.136 153.466L205.74 153.283L208.106 144.748L213.605 147.903L218.744 149.716L225.163 156.307L229.063 153.496L234.371 155.939L238.869 155.361L242.734 152.417L248.292 155.795L254.016 159.79L258.724 159.994L261.957 154.696L264.617 147.255L269.444 147.905L274.607 149.807L279.649 151.258L283.828 149.49L289.578 153.581L295.231 157.315L298.521 152.227L302.454 149.538L308.54 154.887L313.465 155.899L318.292 156.549L323.243 157.663L326.29 151.665L328.636 143.054L332.144 138.78L337.879 142.82L342.541 142.852L345.178 135.329L349.38 133.644L354.657 135.972L358.298 132.195L363.122 132.832L367.245 130.854L373.71 137.616L379.356 141.318L384.668 143.781L388.378 140.258L392.489 138.236L396.967 137.581L399.631 130.159L405.646 135.242L411.488 139.676L415.954 138.977L418.207 130.022L422.528 128.782L427.023 128.191L430.937 125.432L434.622 121.82L441.974 131.889" stroke="#EAECF0" stroke-width="1.65254" stroke-linecap="round" stroke-linejoin="round"/>
<path d="M-4.04739 203.91L-1.0591 197.697L5.41443 204.491L9.43551 202.131L14.3479 203.099L18.6928 201.948L23.3871 202.102L25.3528 192.072L30.4016 193.548L32.3741 183.544L35.7492 178.774L40.7878 180.212L42.4979 169.228L47.7596 171.5L52.9567 173.529L55.3246 165.001L61.067 169.066L65.0744 166.656L70.1931 168.393L74.8055 168.241L80.0281 170.366L84.3867 169.266L91.3851 178.019L95.3261 175.361L99.5261 173.67L102.201 166.286L106.885 166.401L109.858 160.13L115.196 162.688L118.26 156.754L122.26 154.319L126.849 154.078L131.189 152.908L135.45 151.446L137.555 141.938L140.3 134.815L143.747 130.312L147.708 127.73L154.042 134.003L160.343 140.154L165.779 143.074L170.789 144.404L174.723 141.72L178.067 136.836L180.454 128.378L184.478 126.031L188.726 124.518L193.644 125.505L200.31 133.017L201.999 121.957L206.539 121.531L210.14 117.608L213.971 114.536L218.453 113.901L222.585 111.955L225.497 105.455L229.429 102.766L233.631 101.081L238.371 101.406L243.635 103.684L247.913 102.285L251.774 99.328L257.53 103.444L262.431 104.367L268.344 109.068L271.707 104.254L276.525 104.871L279.074 97.0167L282.79 93.5192L288.316 96.7764L292.981 96.8216L296.014 90.7734L299.837 87.6766L302.275 79.4087L302.928 64.4813L308.318 67.2297L312.082 63.9102L314.59 55.9031L320.695 61.3229L326.09 64.0903L328.19 54.563L332.286 52.4838L336.837 52.1029L341.523 52.2244L346.977 55.2145L351.586 55.0498L358.38 63.0392L362.095 59.5352L364.918 52.7048L368.054 47.0446L372.849 47.5732L376.18 42.6382L382.198 47.7335L386.412 46.0932L391.323 47.0543L396.141 47.6719L401.28 49.4853L407.002 53.474L408.447 41.4979L412.374 38.7891L414.938 30.9918" stroke="#EAECF0" stroke-width="1.65254" stroke-linecap="round" stroke-linejoin="round"/>
<path d="M-0.60321 216.765L1.57725 207.537L5.17907 203.613L8.06169 197.005L11.4812 192.401L17.2593 196.599L22.9608 200.512L27.4148 199.768L30.5326 194.038L33.6964 188.48L39.4491 192.583L44.2797 193.245L49.3915 194.957L54.1267 195.262L56.9138 188.298L62.1211 190.366L65.8712 186.996L72.7333 195.24L76.4408 191.71L79.9284 187.36L84.2052 185.955L89.4022 187.985L92.7535 183.126L97.6744 184.126L101.767 182.034L105.047 176.908L110.689 180.598L114.313 176.757L119.735 179.626L123.778 177.349L128.38 177.159L133.056 177.243L139.229 182.917L143.404 181.13L149.567 186.766L152.114 178.905L156.808 179.059L162.593 183.283L166.66 181.095L171.37 181.306L175.084 177.802L177.662 170.056L180.948 164.955L185.421 164.282L187.826 155.893L189.257 143.866L192.809 139.758L197.388 139.479L201.252 136.534L205.604 135.409L208.779 129.895L212.656 126.996L218.529 131.55L220.51 121.578L223.775 116.395L226.513 109.246L232.741 115.124L236.077 110.208L238.022 100.102L242.67 100.084L245.498 93.2722L251.742 99.2071L256.692 100.315L263.032 106.612L269.482 113.317L275.715 119.213L280.258 118.801L285.317 120.315L288.259 113.93L293.708 116.901L296.611 110.369L301.984 113.054L308.524 120.096L309.068 104.761L312.033 98.4589L317.877 102.906L322.629 103.275L328.588 108.148L333.838 110.375L335.032 97.4636L341.575 104.518L344.303 97.3314L347.712 92.6889L349.741 82.8945L354.196 82.1574L358.357 80.3198L362.912 79.9516L367.003 77.8533L371.544 77.4342L374.167 69.8596L380.184 74.9486L384.628 74.1669L386.665 64.4043L391.491 65.0474L393.429 54.9158L398.35 55.9151L403.52 57.843L408.088 57.5256L414.043 62.3857L419.902 66.8832L423.803 64.0789" stroke="#EAECF0" stroke-width="1.65254" stroke-linecap="round" stroke-linejoin="round"/>
<path d="M417.344 39.9735L415.712 51.2499L412.393 56.2295L409.427 62.5257L406.376 68.5038L403.232 74.1385L398.323 73.1838L395.403 79.6517L391.689 83.1556L388.517 88.6822L384.847 92.3515L379.644 90.3028L372.585 81.3212L369.721 87.999L364.996 87.7312L360.811 89.4796L357.03 92.7355L353.548 97.1045L348.784 96.6904L342.731 91.4678L338.56 93.2671L334.459 95.3273L331.269 100.79L328.728 108.67L323.082 104.968L319.81 110.119L315.379 110.952L309.191 105.22L305.391 108.406L301.9 112.743L296.916 111.509L291.01 106.833L288.177 113.625L282.726 110.648L277.096 107.003L272.715 108.02L270.627 117.592L264.956 113.794L261.961 119.982L260.174 130.679L256.202 133.223L254.54 144.385L249.609 143.347L246.319 148.435L240.837 145.343L237.501 150.259L234.678 157.09L228.246 150.449L223.562 150.334L218.487 148.762L214.768 152.247L208.876 147.622L205.156 151.107L197.696 140.631L191.408 134.53L190.277 147.677L183.446 139.547L179.788 143.261L174.772 141.906L166.786 129.47L161.852 128.42L158.368 132.783L155.505 139.467L153.829 150.578L149.934 153.408L145.419 153.922L139.663 149.806L135.231 150.633L129.915 148.158L126.542 152.934L122.899 156.705L116.901 151.686L113.135 154.999L108.877 156.474L105.076 159.653L100.336 159.328L96.751 163.316L91.3512 160.529L85.8815 157.482L83.3619 165.444L79.2931 167.625L75.664 171.447L71.7963 174.379L65.667 168.87L62.1743 173.201L56.1813 168.201L52.2574 170.922L47.9159 172.086L43.6665 173.593L42.1763 185.397L38.3955 188.653L33.316 187.062L29.041 188.473L24.4695 188.778L20.1229 189.922L13.2727 181.723L10.0918 187.218L5.25608 186.536L2.39735 193.233L-2.38214 192.762L-6.25665 195.668" stroke="#EAECF0" stroke-width="1.65254" stroke-linecap="round" stroke-linejoin="round"/>
<path d="M427.773 78.0536L423.609 86.9843L419.07 83.7826L414.637 83.9739L410.334 88.4049L405.986 91.3961L401.683 95.7938L397.531 105.104L393.122 106.102L388.705 106.86L384.461 113.191L380.284 121.689L375.66 115.734L371.239 116.338L366.827 117.243L362.311 114.761L357.939 116.972L353.498 116.911L349.226 122.355L344.773 121.926L340.602 130.61L336.313 135.501L332.045 141.052L327.51 137.97L323.189 141.822L318.591 136.713L314.253 140.004L309.558 131.75L305.171 133.454L300.803 135.765L296.408 137.217L291.99 137.915L287.642 140.899L283.353 145.757L279.087 151.394L274.439 144.66L269.946 142.944L265.728 150.115L261.225 148.053L257.025 155.831L252.543 154.456L248.225 158.4L244.003 165.451L239.447 161.663L235.105 164.834L230.828 170.118L226.382 169.896L221.955 170.321L217.636 174.212L213.05 169.484L208.574 168.328L204.295 173.539L199.567 164.185L194.859 155.523L190.289 151.295L186.117 159.979L181.75 162.33L177.298 161.922L172.793 159.826L168.263 156.898L163.677 152.156L159.047 146.015L154.757 150.846L150.432 154.584L145.896 151.455L141.568 155.093L137.165 156.278L132.762 157.462L128.225 154.3L123.583 147.779L119.254 151.363L114.809 151.195L110.399 152.146L106.126 157.53L101.827 162.095L97.3326 160.333L92.7125 154.498L88.311 155.736L84.2731 168.74L79.9709 173.191L75.6102 175.749L71.1542 175.227L66.791 177.704L62.2725 175.156L58.0204 181.227L53.4448 176.832L48.8963 173.317L44.7151 181.681L40.4411 187.045L36.3208 197.382L31.8496 196.367L27.1988 189.539L22.9975 197.257L18.7294 202.808L14.1241 197.453L9.60573 194.911L5.08183 192.189L0.50457 187.741L-4.06462 183.552L-8.58337 180.997L-12.9109 184.628" stroke="#7F56D9" stroke-width="4.40678" stroke-linecap="round" stroke-linejoin="round"/>
</g>
<defs>
<clipPath id="clip0_200_36469">
<rect width="420" height="260" fill="white"/>
</clipPath>
</defs>
</svg>
