<svg width="21" height="21" viewBox="0 0 21 21" fill="none" xmlns="http://www.w3.org/2000/svg">
<path d="M2.41677 10.901H4.08343C4.08145 10.0249 4.25246 9.15704 4.58666 8.3472C4.92086 7.53737 5.41167 6.8015 6.03093 6.18179C6.63743 5.57328 7.35704 5.08921 8.14927 4.75679C9.78218 4.0784 11.6158 4.06614 13.2576 4.72263C13.2737 5.26218 13.4995 5.77421 13.8871 6.14986C14.2748 6.52552 14.7936 6.73518 15.3334 6.73429C16.4884 6.73429 17.4168 5.80596 17.4168 4.65096C17.4168 3.49596 16.4884 2.56763 15.3334 2.56763C14.7593 2.56763 14.2401 2.79763 13.8643 3.17179C11.8384 2.36096 9.51177 2.37346 7.50177 3.22096C6.51105 3.63738 5.61094 4.24282 4.85177 5.00346C4.09078 5.76221 3.48504 6.66205 3.06843 7.65263C2.6361 8.68091 2.4145 9.78549 2.41677 10.901ZM16.8943 13.5026C16.5601 14.296 16.0801 15.0093 15.4693 15.6201C14.8584 16.231 14.1451 16.711 13.3509 17.0451C11.718 17.7235 9.88444 17.7358 8.2426 17.0793C8.22654 16.5397 8.0007 16.0277 7.61306 15.6521C7.22542 15.2764 6.70656 15.0667 6.16677 15.0676C5.01177 15.0676 4.08343 15.996 4.08343 17.151C4.08343 18.306 5.01177 19.2343 6.16677 19.2343C6.74093 19.2343 7.2601 19.0043 7.63593 18.6301C8.62552 19.0298 9.68286 19.2349 10.7501 19.2343C12.3889 19.2375 13.9921 18.7565 15.3585 17.8519C16.725 16.9472 17.7938 15.6592 18.4309 14.1493C18.8638 13.1212 19.0857 12.0165 19.0834 10.901H17.4168C17.4189 11.7944 17.2412 12.6792 16.8943 13.5026Z" fill="#7F56D9"/>
<path d="M10.7499 7.11914C8.66493 7.11914 6.96826 8.81581 6.96826 10.9008C6.96826 12.9858 8.66493 14.6825 10.7499 14.6825C12.8349 14.6825 14.5316 12.9858 14.5316 10.9008C14.5316 8.81581 12.8349 7.11914 10.7499 7.11914ZM10.7499 13.0158C9.5841 13.0158 8.63493 12.0666 8.63493 10.9008C8.63493 9.73497 9.5841 8.78581 10.7499 8.78581C11.9158 8.78581 12.8649 9.73497 12.8649 10.9008C12.8649 12.0666 11.9158 13.0158 10.7499 13.0158Z" fill="#7F56D9"/>
</svg>
