<svg width="29" height="29" viewBox="0 0 29 29" fill="none" xmlns="http://www.w3.org/2000/svg">
<path d="M22.6095 0H6.91965C3.39035 0 0.529297 2.86106 0.529297 6.39035V22.0802C0.529297 25.6095 3.39035 28.4706 6.91965 28.4706H22.6095C26.1388 28.4706 28.9999 25.6095 28.9999 22.0802V6.39035C28.9999 2.86106 26.1388 0 22.6095 0Z" fill="white" fill-opacity="0.1"/>
<path d="M11.4396 12.3151H9.16144V18.9866H11.4396V12.3151Z" fill="white"/>
<path d="M11.0566 9.20164C10.8395 9.07017 10.5843 9 10.3233 9C10.1491 9 9.97669 9.03124 9.81588 9.09194C9.65508 9.15264 9.50908 9.24159 9.38628 9.35367C9.26349 9.46576 9.16632 9.59878 9.10037 9.74507C9.03441 9.89136 9.00097 10.048 9.00197 10.2061C9.00348 10.443 9.08224 10.6742 9.22834 10.8705C9.37443 11.0668 9.58132 11.2194 9.82288 11.3091C10.0644 11.3988 10.3299 11.4216 10.5857 11.3745C10.8415 11.3275 11.0762 11.2127 11.2602 11.0448C11.4443 10.8768 11.5694 10.6631 11.6197 10.4306C11.6701 10.1982 11.6435 9.95744 11.5433 9.73872C11.4431 9.51999 11.2737 9.3331 11.0566 9.20164Z" fill="white"/>
<path d="M15.0964 12.3147H12.9018L12.8942 19H15.1723V15.6987C15.1723 14.8303 15.3546 13.9895 16.5392 13.9895C17.7238 13.9895 17.7238 14.9888 17.7238 15.7607V18.9862H20.002V15.3265C20.002 13.5277 19.5387 12.1493 17.2606 12.1493C16.8264 12.1339 16.3958 12.2258 16.0146 12.4151C15.6334 12.6045 15.3161 12.8842 15.0964 13.2245V12.3147Z" fill="white"/>
</svg>
