<svg width="158" height="24" viewBox="0 0 158 24" fill="none" xmlns="http://www.w3.org/2000/svg">
<path d="M6.89396 24C5.86309 24 4.89664 23.8497 3.99463 23.549C3.09262 23.2268 2.29799 22.7758 1.61074 22.196C0.92349 21.5946 0.386577 20.8644 0 20.0054L3.64027 18.3302C3.96242 18.8456 4.40269 19.2966 4.96107 19.6832C5.51946 20.0483 6.16376 20.2309 6.89396 20.2309C7.60268 20.2309 8.15034 20.1342 8.53691 19.9409C8.92349 19.7262 9.11678 19.4255 9.11678 19.0389C9.11678 18.6523 8.95571 18.3732 8.63356 18.2013C8.33289 18.0081 7.91409 17.847 7.37718 17.7181L5.8953 17.3315C4.34899 16.9235 3.12483 16.2792 2.22282 15.3987C1.34228 14.4966 0.902013 13.4658 0.902013 12.306C0.902013 10.6523 1.42819 9.3745 2.48054 8.47248C3.55436 7.57047 5.06846 7.11946 7.02282 7.11946C8.03222 7.11946 8.96644 7.2698 9.8255 7.57047C10.706 7.87114 11.4577 8.28993 12.0805 8.82685C12.7034 9.36376 13.1329 9.98658 13.3691 10.6953L9.85772 12.306C9.70738 11.8765 9.34228 11.5329 8.76242 11.2752C8.18255 10.996 7.60268 10.8564 7.02282 10.8564C6.44295 10.8564 5.99195 10.9852 5.6698 11.243C5.36913 11.4792 5.21879 11.8121 5.21879 12.2416C5.21879 12.5208 5.36913 12.757 5.6698 12.9503C5.97047 13.1221 6.4 13.2725 6.95839 13.4013L9.05235 13.9168C10.1047 14.1745 10.9423 14.5933 11.5651 15.1732C12.2094 15.7315 12.6711 16.3651 12.9503 17.0738C13.251 17.7611 13.4013 18.4376 13.4013 19.1034C13.4013 20.0698 13.1114 20.9289 12.5315 21.6805C11.9732 22.4107 11.2 22.9799 10.2121 23.3879C9.24564 23.796 8.1396 24 6.89396 24Z" fill="white"/>
<path d="M22.5123 24C20.7298 24 19.3768 23.5597 18.4533 22.6792C17.5513 21.7987 17.1003 20.5423 17.1003 18.9101V2.48054H21.3526V17.9758C21.3526 18.6631 21.5029 19.1893 21.8036 19.5544C22.1043 19.898 22.5445 20.0698 23.1244 20.0698C23.3392 20.0698 23.5754 20.0268 23.8331 19.9409C24.0909 19.8336 24.3593 19.6832 24.6385 19.4899L26.1204 22.6792C25.605 23.0658 25.0251 23.3772 24.3808 23.6134C23.758 23.8711 23.1352 24 22.5123 24ZM14.4909 11.1141V7.50604H25.3794V11.1141H14.4909Z" fill="white"/>
<path d="M31.8335 15.1409C31.8335 13.4013 32.1664 11.9624 32.8321 10.8242C33.5194 9.68591 34.3892 8.83758 35.4415 8.27919C36.5154 7.72081 37.6321 7.44161 38.7919 7.44161V11.5651C37.8039 11.5651 36.8697 11.6832 35.9892 11.9195C35.1301 12.1557 34.4321 12.5423 33.8952 13.0792C33.3583 13.6161 33.0899 14.3034 33.0899 15.1409H31.8335ZM28.8375 23.6134V7.50604H33.0899V23.6134H28.8375Z" fill="white"/>
<path d="M50.7083 23.6134L50.5472 20.3597V15.4631C50.5472 14.4966 50.4398 13.6805 50.2251 13.0148C50.0103 12.3275 49.6774 11.8121 49.2264 11.4685C48.7969 11.1034 48.217 10.9208 47.4868 10.9208C46.8425 10.9208 46.2627 11.0604 45.7472 11.3396C45.2318 11.6188 44.7915 12.0698 44.4264 12.6926L40.5607 11.3718C40.8613 10.6846 41.3016 10.0188 41.8815 9.3745C42.4613 8.70872 43.213 8.17181 44.1365 7.76376C45.0815 7.33423 46.2305 7.11946 47.5835 7.11946C49.1942 7.11946 50.5365 7.4094 51.6103 7.98926C52.7056 8.56913 53.5217 9.42819 54.0586 10.5664C54.5956 11.6832 54.8533 13.0577 54.8318 14.6899L54.7352 23.6134H50.7083ZM46.2627 24C44.3298 24 42.8264 23.5705 41.7526 22.7114C40.7003 21.8523 40.1741 20.6389 40.1741 19.0711C40.1741 17.353 40.7432 16.0644 41.8815 15.2054C43.0412 14.3248 44.6627 13.8846 46.7459 13.8846H50.8372V17.0416H48.2278C46.8318 17.0416 45.8654 17.2134 45.3284 17.557C44.7915 17.8792 44.5231 18.3409 44.5231 18.9423C44.5231 19.4148 44.7378 19.7906 45.1674 20.0698C45.5969 20.3275 46.1982 20.4564 46.9714 20.4564C47.6586 20.4564 48.2707 20.2953 48.8076 19.9732C49.3445 19.6295 49.7633 19.2 50.064 18.6846C50.3862 18.1476 50.5472 17.6 50.5472 17.0416H51.6747C51.6747 19.2322 51.2452 20.9396 50.3862 22.1638C49.5486 23.3879 48.1741 24 46.2627 24Z" fill="white"/>
<path d="M64.8571 24C63.0746 24 61.7216 23.5597 60.7981 22.6792C59.8961 21.7987 59.445 20.5423 59.445 18.9101V2.48054H63.6974V17.9758C63.6974 18.6631 63.8477 19.1893 64.1484 19.5544C64.4491 19.898 64.8894 20.0698 65.4692 20.0698C65.684 20.0698 65.9202 20.0268 66.1779 19.9409C66.4357 19.8336 66.7041 19.6832 66.9833 19.4899L68.4652 22.6792C67.9498 23.0658 67.3699 23.3772 66.7256 23.6134C66.1028 23.8711 65.4799 24 64.8571 24ZM56.8357 11.1141V7.50604H67.7243V11.1141H56.8357Z" fill="white"/>
<path d="M72.793 23.6134V5.8953C72.793 4.17718 73.2333 2.84564 74.1138 1.90067C74.9944 0.934228 76.3367 0.451007 78.1407 0.451007C78.7635 0.451007 79.4185 0.558389 80.1058 0.773154C80.8145 0.987919 81.4588 1.24564 82.0387 1.54631L80.4602 4.60671C80.1165 4.4349 79.8051 4.30604 79.5259 4.22013C79.2467 4.13423 78.989 4.09128 78.7528 4.09128C78.1729 4.09128 77.7434 4.2953 77.4642 4.70336C77.185 5.08993 77.0454 5.72349 77.0454 6.60403V23.6134H72.793ZM70.1192 10.9208V7.50604H81.0078V10.9208H70.1192Z" fill="white"/>
<path d="M84.0868 23.6134V7.50604H88.3392V23.6134H84.0868ZM86.213 4.89664C85.5687 4.89664 84.9996 4.6604 84.5056 4.18792C84.0117 3.69396 83.7647 3.11409 83.7647 2.44832C83.7647 1.78255 84.0117 1.21342 84.5056 0.74094C84.9996 0.24698 85.5687 0 86.213 0C86.8788 0 87.4479 0.24698 87.9204 0.74094C88.4144 1.21342 88.6613 1.78255 88.6613 2.44832C88.6613 3.11409 88.4144 3.69396 87.9204 4.18792C87.4479 4.6604 86.8788 4.89664 86.213 4.89664Z" fill="white"/>
<path d="M92.2603 23.6134V7.50604H96.255L96.5127 10.4698V23.6134H92.2603ZM102.923 23.6134V15.3664L107.176 14.4V23.6134H102.923ZM102.923 15.3664C102.923 14.2711 102.795 13.4228 102.537 12.8215C102.301 12.2201 101.957 11.7906 101.506 11.5329C101.055 11.2537 100.529 11.1141 99.9274 11.1141C98.8321 11.0926 97.9838 11.4255 97.3825 12.1128C96.8026 12.8 96.5127 13.8201 96.5127 15.1732H95.0952C95.0952 13.455 95.3422 12.0054 95.8362 10.8242C96.3516 9.62148 97.0603 8.70872 97.9623 8.08591C98.8643 7.44161 99.9274 7.11946 101.152 7.11946C103.106 7.11946 104.599 7.72081 105.629 8.92349C106.682 10.1047 107.197 11.9302 107.176 14.4L102.923 15.3664Z" fill="white"/>
<path d="M122.038 23.6134L121.813 20.6175V1.06309H126.065V23.6134H122.038ZM116.981 24C115.499 24 114.21 23.6564 113.115 22.9691C112.041 22.2819 111.203 21.3047 110.602 20.0376C110.001 18.7705 109.7 17.2779 109.7 15.5597C109.7 13.8201 110.001 12.3275 110.602 11.0819C111.203 9.81476 112.041 8.83758 113.115 8.15034C114.21 7.46309 115.499 7.11946 116.981 7.11946C118.334 7.11946 119.472 7.46309 120.395 8.15034C121.34 8.83758 122.06 9.81476 122.554 11.0819C123.048 12.3275 123.295 13.8201 123.295 15.5597C123.295 17.2779 123.048 18.7705 122.554 20.0376C122.06 21.3047 121.34 22.2819 120.395 22.9691C119.472 23.6564 118.334 24 116.981 24ZM118.076 20.102C118.806 20.102 119.45 19.9087 120.009 19.5221C120.589 19.1356 121.04 18.5987 121.362 17.9114C121.684 17.2242 121.845 16.4403 121.845 15.5597C121.845 14.6792 121.684 13.8953 121.362 13.2081C121.04 12.5208 120.589 11.9946 120.009 11.6295C119.45 11.243 118.795 11.0497 118.044 11.0497C117.271 11.0497 116.594 11.243 116.014 11.6295C115.434 11.9946 114.973 12.5208 114.629 13.2081C114.285 13.8953 114.114 14.6792 114.114 15.5597C114.114 16.4403 114.285 17.2242 114.629 17.9114C114.973 18.5987 115.434 19.1356 116.014 19.5221C116.616 19.9087 117.303 20.102 118.076 20.102Z" fill="white"/>
<path d="M137.009 24C135.42 24 134.013 23.6456 132.789 22.9369C131.565 22.2067 130.599 21.2081 129.89 19.9409C129.203 18.6738 128.859 17.2134 128.859 15.5597C128.859 13.906 129.213 12.4456 129.922 11.1785C130.652 9.91141 131.64 8.92349 132.886 8.21477C134.153 7.48456 135.603 7.11946 137.235 7.11946C138.631 7.11946 139.919 7.4953 141.101 8.24698C142.303 8.97718 143.27 10.0617 144 11.5007C144.73 12.9181 145.095 14.647 145.095 16.6872H140.779C140.8 15.2698 140.65 14.1423 140.328 13.3047C140.027 12.4456 139.597 11.8336 139.039 11.4685C138.481 11.0819 137.826 10.8886 137.074 10.8886C136.236 10.8886 135.528 11.0604 134.948 11.404C134.368 11.7477 133.928 12.2738 133.627 12.9826C133.348 13.6698 133.208 14.5718 133.208 15.6886C133.208 16.655 133.401 17.4604 133.788 18.1047C134.174 18.749 134.69 19.243 135.334 19.5866C135.979 19.9087 136.687 20.0698 137.46 20.0698C138.298 20.0698 138.975 19.8872 139.49 19.5221C140.027 19.157 140.435 18.6846 140.714 18.1047L144.709 19.651C144.258 20.553 143.667 21.3369 142.937 22.0027C142.228 22.647 141.38 23.1409 140.392 23.4846C139.404 23.8282 138.277 24 137.009 24ZM131.63 16.6872L131.662 13.3691H143.001V16.6872H131.63Z" fill="white"/>
<path d="M150.562 15.1409C150.562 13.4013 150.895 11.9624 151.561 10.8242C152.248 9.68591 153.118 8.83758 154.171 8.27919C155.244 7.72081 156.361 7.44161 157.521 7.44161V11.5651C156.533 11.5651 155.599 11.6832 154.718 11.9195C153.859 12.1557 153.161 12.5423 152.624 13.0792C152.087 13.6161 151.819 14.3034 151.819 15.1409H150.562ZM147.567 23.6134V7.50604H151.819V23.6134H147.567Z" fill="white"/>
</svg>
